<svg xmlns="http://www.w3.org/2000/svg" width="640" height="480" viewBox="0 0 640 480" fill="none" aria-hidden="true">
  <defs>
    <linearGradient id="bg" x1="0" y1="0" x2="640" y2="480" gradientUnits="userSpaceOnUse">
      <stop stop-color="#f8fafc"/>
      <stop offset="1" stop-color="#eef2ff"/>
    </linearGradient>
    <filter id="s" x="-20%" y="-20%" width="140%" height="140%">
      <feDropShadow dx="0" dy="8" stdDeviation="12" flood-opacity="0.12"/>
    </filter>
  </defs>
  <rect width="640" height="480" rx="24" fill="url(#bg)"/>
  <!-- Open kit box -->
  <g filter="url(#s)">
    <path d="M120 280 L320 200 L520 280 L520 360 L120 360 Z" fill="#fff" stroke="#e2e8f0" stroke-width="2"/>
    <path d="M120 280 L320 200 L520 280" fill="#f1f5f9" stroke="#e2e8f0" stroke-width="2"/>
  </g>
  <!-- Cards / materials -->
  <rect x="180" y="220" width="88" height="110" rx="10" fill="#fff" stroke="#cbd5e1" stroke-width="1.5" filter="url(#s)"/>
  <rect x="196" y="236" width="56" height="8" rx="2" fill="#93c5fd"/>
  <rect x="196" y="252" width="48" height="6" rx="2" fill="#e2e8f0"/>
  <rect x="196" y="266" width="52" height="6" rx="2" fill="#e2e8f0"/>
  <text x="224" y="312" text-anchor="middle" font-family="system-ui,sans-serif" font-size="22" font-weight="600" fill="#64748b">Aa</text>
  <rect x="290" y="210" width="100" height="72" rx="8" fill="#fef3c7" stroke="#fcd34d" stroke-width="1.5" filter="url(#s)"/>
  <circle cx="340" cy="246" r="18" fill="#fbbf24" opacity="0.35"/>
  <rect x="410" y="230" width="76" height="96" rx="8" fill="#fff" stroke="#c7d2fe" stroke-width="1.5" filter="url(#s)"/>
  <path d="M430 268 L466 268" stroke="#818cf8" stroke-width="3" stroke-linecap="round"/>
  <path d="M430 284 L458 284" stroke="#e2e8f0" stroke-width="2.5" stroke-linecap="round"/>
  <path d="M430 298 L452 298" stroke="#e2e8f0" stroke-width="2.5" stroke-linecap="round"/>
  <!-- Stickers -->
  <circle cx="250" y="180" r="22" fill="#fecdd3" stroke="#fda4af" stroke-width="1.5"/>
  <circle cx="400" y="175" r="18" fill="#bbf7d0" stroke="#86efac" stroke-width="1.5"/>
  <circle cx="480" y="210" r="14" fill="#ddd6fe" stroke="#c4b5fd" stroke-width="1.5"/>
</svg>
